<svg width="39" height="38" viewBox="0 0 39 38" fill="none" xmlns="http://www.w3.org/2000/svg">
<path d="M32.3375 4.89788C32.1377 4.06133 31.7654 3.27312 31.2431 2.58118C30.7209 1.88924 30.0596 1.30803 29.2996 0.872902C28.5396 0.437771 27.6967 0.157811 26.8222 0.0500477C25.9477 -0.057716 25.0598 0.00896832 24.2125 0.246046L21.411 1.02663C20.7013 1.22537 20.0477 1.57956 19.5 2.06213C18.9523 1.57956 18.2987 1.22537 17.589 1.02663L14.7875 0.246046C13.9408 0.010204 13.0537 -0.0555297 12.1801 0.0528343C11.3065 0.161198 10.4646 0.4414 9.7055 0.876431C8.9465 1.31146 8.286 1.89225 7.7643 2.58354C7.2426 3.27483 6.8705 4.06221 6.6706 4.89788C4.8015 5.22921 3.1107 6.18823 1.892 7.60823C0.673398 9.02822 0.0039 10.8194 0 12.6704V23.7538C0.0026 25.8526 0.859399 27.8648 2.3826 29.3489C3.9058 30.8331 5.9709 31.6679 8.125 31.6704H17.875V34.8371H13C12.569 34.8371 12.1557 35.0039 11.851 35.3009C11.5462 35.5978 11.375 36.0005 11.375 36.4204C11.375 36.8404 11.5462 37.2431 11.851 37.54C12.1557 37.837 12.569 38.0038 13 38.0038H26C26.431 38.0038 26.8443 37.837 27.149 37.54C27.4538 37.2431 27.625 36.8404 27.625 36.4204C27.625 36.0005 27.4538 35.5978 27.149 35.3009C26.8443 35.0039 26.431 34.8371 26 34.8371H21.125V31.6704H30.875C33.0291 31.6679 35.0942 30.8331 36.6174 29.3489C38.1406 27.8648 38.9974 25.8526 39 23.7538V12.6704C38.9965 10.8205 38.3281 9.03026 37.1111 7.61042C35.894 6.19059 34.2051 5.23086 32.3375 4.89788ZM21.125 5.59455C21.1252 5.25067 21.2402 4.91619 21.4528 4.64168C21.6653 4.36716 21.9638 4.16753 22.3031 4.07296L25.1062 3.29238C25.59 3.15757 26.0992 3.13403 26.5939 3.22361C27.0886 3.31319 27.5551 3.51346 27.9568 3.80863C28.3585 4.1038 28.6844 4.48581 28.9088 4.92458C29.1332 5.36335 29.25 5.8469 29.25 6.33713V12.5723C29.2477 13.2594 29.0169 13.9272 28.592 14.4756C28.1672 15.024 27.5713 15.4234 26.8937 15.6139L21.125 17.2194V5.59455ZM11.05 3.8038C11.4509 3.5097 11.9165 3.31041 12.41 3.22166C12.9036 3.13291 13.4115 3.15712 13.8938 3.29238L16.6969 4.07296C17.0362 4.16753 17.3347 4.36716 17.5472 4.64168C17.7598 4.91619 17.8748 5.25067 17.875 5.59455V17.2194L12.1062 15.6139C11.4287 15.4234 10.8328 15.024 10.408 14.4756C9.9831 13.9272 9.7523 13.2594 9.75 12.5723V6.33713C9.7483 5.84524 9.8651 5.35982 10.0909 4.91986C10.3166 4.4799 10.6451 4.09764 11.05 3.8038ZM35.75 23.7538C35.75 25.0136 35.2364 26.2217 34.3221 27.1125C33.4079 28.0033 32.1679 28.5038 30.875 28.5038H8.125C6.8321 28.5038 5.5921 28.0033 4.6779 27.1125C3.7636 26.2217 3.25 25.0136 3.25 23.7538V12.6704C3.2542 11.6915 3.5686 10.7378 4.1504 9.93969C4.7321 9.14158 5.5528 8.5381 6.5 8.2118V12.5723C6.504 13.9471 6.9654 15.2837 7.8151 16.3814C8.6648 17.479 9.8569 18.2786 11.2125 18.6602L16.8204 20.2229C18.573 20.7097 20.4303 20.7097 22.1829 20.2229L27.7907 18.6602C29.1458 18.2781 30.3371 17.4782 31.1862 16.3806C32.0352 15.283 32.4962 13.9467 32.5 12.5723V8.2118C33.4472 8.5381 34.2678 9.14158 34.8496 9.93969C35.4314 10.7378 35.7458 11.6915 35.75 12.6704V23.7538Z" fill="#FFA273"/>
</svg>
