<svg width="25" height="25" viewBox="0 0 25 25" fill="none" xmlns="http://www.w3.org/2000/svg">
<path d="M2.08334 6.25L9.28441 10.3302C11.9392 11.8344 13.0608 11.8344 15.7156 10.3302L22.9167 6.25" stroke="#808080" stroke-opacity="0.55" stroke-width="1.5" stroke-linejoin="round"/>
<path d="M2.09977 14.0371C2.16786 17.2304 2.20192 18.827 3.38018 20.0098C4.55843 21.1925 6.19827 21.2336 9.47796 21.316C11.4993 21.3669 13.5007 21.3669 15.5221 21.316C18.8018 21.2336 20.4416 21.1925 21.6199 20.0098C22.7981 18.827 22.8322 17.2304 22.9002 14.0371C22.9222 13.0103 22.9222 11.9897 22.9002 10.9629C22.8322 7.76964 22.7981 6.17301 21.6199 4.99027C20.4416 3.80753 18.8018 3.76633 15.5221 3.68392C13.5007 3.63313 11.4993 3.63313 9.47795 3.68391C6.19827 3.76631 4.55843 3.80751 3.38017 4.99026C2.20191 6.173 2.16786 7.76963 2.09976 10.9629C2.07786 11.9897 2.07787 13.0103 2.09977 14.0371Z" stroke="#808080" stroke-opacity="0.55" stroke-width="1.5" stroke-linejoin="round"/>
</svg>
