<svg width="25" height="25" viewBox="0 0 25 25" fill="none" xmlns="http://www.w3.org/2000/svg">
<path fill-rule="evenodd" clip-rule="evenodd" d="M12.5 1.77498C9.33817 1.77498 6.775 4.33815 6.775 7.49998C6.775 10.6618 9.33817 13.225 12.5 13.225C15.6618 13.225 18.225 10.6618 18.225 7.49998C18.225 4.33815 15.6618 1.77498 12.5 1.77498ZM7.725 7.49998C7.725 4.86282 9.86284 2.72498 12.5 2.72498C15.1372 2.72498 17.275 4.86282 17.275 7.49998C17.275 10.1371 15.1372 12.275 12.5 12.275C9.86284 12.275 7.725 10.1371 7.725 7.49998ZM4.64171 22.6666C4.64171 19.7466 5.4112 17.7206 6.72924 16.4216C8.04867 15.1213 9.99337 14.475 12.4999 14.475C15.0065 14.475 16.9512 15.1213 18.2707 16.4216C19.5888 17.7206 20.3583 19.7466 20.3583 22.6666C20.3583 22.9289 20.5709 23.1416 20.8333 23.1416C21.0956 23.1416 21.3083 22.9289 21.3083 22.6666C21.3083 19.5866 20.4945 17.2793 18.9376 15.745C17.382 14.212 15.16 13.525 12.4999 13.525C9.83981 13.525 7.6179 14.212 6.0624 15.745C4.5055 17.2793 3.69171 19.5866 3.69171 22.6666C3.69171 22.9289 3.90438 23.1416 4.16671 23.1416C4.42905 23.1416 4.64171 22.9289 4.64171 22.6666Z" fill="black"/>
</svg>
