<svg width="290" height="40" viewBox="0 0 290 40" fill="none" xmlns="http://www.w3.org/2000/svg">
<path d="M40.3516 1.83594L33.3203 30.3906H24.1993L21.4649 17.9493C21.4128 17.7149 21.3282 17.3178 21.211 16.7579C21.1068 16.198 20.9831 15.5598 20.8399 14.8438C20.7097 14.1277 20.586 13.4244 20.4688 12.7344C20.3646 12.0312 20.2865 11.4389 20.2344 10.9571C20.1823 11.4389 20.0977 12.0312 19.9805 12.7344C19.8633 13.4244 19.7331 14.1277 19.5899 14.8438C19.4597 15.5598 19.3295 16.198 19.1993 16.7579C19.0821 17.3178 18.9974 17.7149 18.9453 17.9493L16.1914 30.3906H7.07032L0 1.83594H7.44141L10.5469 16.1523C10.625 16.504 10.7292 17.0052 10.8594 17.6562C11.0026 18.2943 11.1459 18.9974 11.2891 19.7656C11.4453 20.5208 11.5886 21.25 11.7188 21.9531C11.849 22.6562 11.9401 23.2422 11.9922 23.711C12.0964 22.9037 12.2331 21.9857 12.4024 20.9571C12.5847 19.9284 12.78 18.8868 12.9883 17.8321C13.2097 16.7644 13.418 15.7748 13.6133 14.8633C13.8086 13.9519 13.9779 13.2097 14.1211 12.6368L16.6407 1.83594H23.7891L26.2305 12.6368C26.3607 13.1967 26.5235 13.9389 26.7188 14.8633C26.9271 15.7748 27.1355 16.7644 27.3438 17.8321C27.5651 18.8997 27.767 19.9545 27.9493 20.996C28.1315 22.0247 28.2683 22.9297 28.3594 23.711C28.4375 23.0599 28.5677 22.2395 28.75 21.25C28.9323 20.2473 29.1146 19.2773 29.2969 18.3398C29.4922 17.3893 29.642 16.6732 29.7461 16.1915L32.9102 1.83594H40.3516ZM101.015 7.87105C101.432 7.87105 101.868 7.90365 102.324 7.96875C102.78 8.02085 103.118 8.06645 103.34 8.10545L102.656 15.3125C102.409 15.2473 102.09 15.1953 101.699 15.1562C101.308 15.1041 100.762 15.0781 100.058 15.0781C99.5772 15.0781 99.0622 15.1236 98.5157 15.2148C97.9688 15.3059 97.448 15.5014 96.9532 15.8008C96.4714 16.0873 96.0743 16.5299 95.7618 17.129C95.4493 17.7148 95.293 18.5092 95.293 19.5118V30.3906H87.6563V8.26175H93.3399L94.5313 11.7969H94.9024C95.306 11.0677 95.8203 10.4102 96.4453 9.82425C97.0834 9.22525 97.793 8.75005 98.5743 8.39845C99.3682 8.04685 100.182 7.87105 101.015 7.87105ZM114.621 0V11.9532C114.621 12.8516 114.582 13.8542 114.504 14.961C114.439 16.0547 114.334 17.0508 114.191 17.9493H114.347C114.647 17.4935 115.025 16.9205 115.48 16.2304C115.936 15.5403 116.346 14.9675 116.711 14.5118L121.672 8.26175H130.187L122.512 17.6758L130.676 30.3906H121.945L117.101 22.461L114.621 24.3554V30.3906H106.945V0H114.621ZM143.773 7.87105C145.922 7.87105 147.777 8.24865 149.34 9.00395C150.902 9.74605 152.107 10.8659 152.953 12.3633C153.799 13.8607 154.222 15.7357 154.222 17.9883V21.3868H140.57C140.635 22.5456 141.065 23.496 141.859 24.2383C142.667 24.9805 143.851 25.3516 145.414 25.3516C146.794 25.3516 148.057 25.2148 149.203 24.9415C150.362 24.6679 151.553 24.2448 152.777 23.6719V29.1602C151.709 29.7201 150.544 30.1302 149.281 30.3906C148.018 30.6511 146.423 30.7813 144.496 30.7813C142.269 30.7813 140.277 30.3841 138.519 29.5898C136.762 28.7955 135.375 27.5652 134.359 25.8985C133.357 24.2318 132.855 22.0899 132.855 19.4727C132.855 16.8165 133.311 14.6355 134.222 12.9297C135.134 11.211 136.41 9.94145 138.051 9.12105C139.691 8.28775 141.599 7.87105 143.773 7.87105ZM144.047 13.0665C143.148 13.0665 142.393 13.3529 141.781 13.9258C141.182 14.4857 140.831 15.371 140.726 16.5821H147.289C147.276 15.931 147.146 15.3386 146.898 14.8047C146.651 14.2709 146.286 13.8477 145.805 13.5352C145.336 13.2227 144.75 13.0665 144.047 13.0665ZM169.879 24.746C170.569 24.746 171.2 24.6744 171.773 24.5312C172.346 24.3881 172.945 24.2057 173.57 23.9844V29.5507C172.737 29.9153 171.851 30.2084 170.914 30.4297C169.989 30.6641 168.805 30.7813 167.359 30.7813C165.927 30.7813 164.664 30.5599 163.57 30.1172C162.476 29.6615 161.624 28.8803 161.012 27.7735C160.413 26.6537 160.113 25.0977 160.113 23.1054V13.9844H157.437V10.879L160.836 8.47655L162.808 3.82813H167.808V8.26175H173.238V13.9844H167.808V22.5977C167.808 23.3139 167.991 23.8542 168.355 24.2188C168.72 24.5704 169.228 24.746 169.879 24.746ZM175.262 8.26175H183.308L187.058 20.9571C187.111 21.1394 187.163 21.3671 187.215 21.6406C187.267 21.9011 187.312 22.181 187.351 22.4804C187.39 22.7799 187.417 23.073 187.43 23.3594H187.586C187.651 22.8256 187.722 22.3633 187.801 21.9727C187.892 21.569 187.976 21.2435 188.055 20.996L191.902 8.26175H199.695L190.945 31.7969C190.268 33.5938 189.48 35.0976 188.582 36.3085C187.696 37.5325 186.596 38.4506 185.281 39.0625C183.979 39.6875 182.358 40 180.418 40C179.715 40 179.109 39.9609 178.601 39.8828C178.107 39.8177 177.67 39.746 177.293 39.6679V33.6718C177.579 33.7239 177.931 33.776 178.347 33.8281C178.764 33.8802 179.2 33.9062 179.656 33.9062C180.502 33.9062 181.186 33.7369 181.707 33.3984C182.241 33.0598 182.677 32.6106 183.015 32.0507C183.354 31.5039 183.647 30.9115 183.894 30.2735L183.972 30.0781L175.262 8.26175ZM213.652 7.87105C216.452 7.87105 218.639 8.56775 220.215 9.96095C221.79 11.3412 222.578 13.3139 222.578 15.879V30.3906H217.285L215.82 27.461H215.664C215.039 28.2422 214.394 28.8803 213.73 29.3751C213.079 29.8568 212.331 30.2084 211.484 30.4297C210.638 30.6641 209.603 30.7813 208.379 30.7813C207.103 30.7813 205.957 30.5209 204.941 30.0001C203.926 29.4792 203.125 28.6915 202.539 27.6368C201.953 26.5821 201.66 25.2474 201.66 23.6329C201.66 21.2631 202.48 19.5053 204.121 18.3594C205.762 17.2136 208.138 16.569 211.25 16.4258L214.941 16.3085V15.996C214.941 15.0065 214.694 14.3034 214.199 13.8868C213.717 13.4701 213.066 13.2618 212.246 13.2618C211.374 13.2618 210.397 13.4179 209.316 13.7304C208.249 14.0299 207.174 14.4205 206.094 14.9023L203.887 9.86325C205.163 9.21225 206.608 8.71745 208.222 8.37895C209.837 8.04035 211.647 7.87105 213.652 7.87105ZM214.98 20.5079L213.222 20.586C211.816 20.6381 210.827 20.8855 210.254 21.3281C209.694 21.7579 209.414 22.3764 209.414 23.1835C209.414 23.9389 209.616 24.4987 210.019 24.8633C210.423 25.2149 210.957 25.3906 211.621 25.3906C212.545 25.3906 213.333 25.0977 213.984 24.5118C214.648 23.9258 214.98 23.1641 214.98 22.2266V20.5079ZM255.285 7.87105C257.811 7.87105 259.738 8.51565 261.066 9.80465C262.407 11.0938 263.078 13.1575 263.078 15.996V30.3906H255.441V18.3594C255.441 16.6796 255.213 15.5144 254.758 14.8633C254.315 14.1993 253.651 13.8672 252.765 13.8672C251.528 13.8672 250.669 14.4076 250.187 15.4883C249.719 16.569 249.484 18.0989 249.484 20.0781V30.3906H241.828V18.3594C241.828 17.2917 241.73 16.4323 241.535 15.7812C241.353 15.1172 241.073 14.6355 240.695 14.336C240.318 14.0235 239.842 13.8672 239.269 13.8672C238.397 13.8672 237.713 14.1341 237.219 14.6679C236.737 15.1888 236.398 15.9571 236.203 16.9727C236.008 17.9883 235.91 19.2318 235.91 20.7031V30.3906H228.273V8.26175H234.035L235.148 10.996H235.363C235.754 10.3972 236.255 9.86325 236.867 9.39455C237.492 8.92575 238.228 8.55465 239.074 8.28125C239.933 8.00785 240.91 7.87105 242.004 7.87105C243.631 7.87105 244.972 8.14455 246.027 8.69145C247.082 9.23825 247.941 9.99345 248.605 10.9571H248.84C249.543 9.96745 250.448 9.20575 251.555 8.67185C252.661 8.13805 253.905 7.87105 255.285 7.87105ZM289.906 19.2773C289.906 21.1264 289.652 22.767 289.144 24.1993C288.637 25.6316 287.901 26.8359 286.937 27.8125C285.974 28.789 284.808 29.5312 283.441 30.039C282.074 30.5338 280.531 30.7813 278.812 30.7813C277.211 30.7813 275.739 30.5338 274.398 30.039C273.07 29.5312 271.911 28.789 270.922 27.8125C269.932 26.8359 269.164 25.6316 268.617 24.1993C268.083 22.767 267.816 21.1264 267.816 19.2773C267.816 16.8294 268.259 14.7592 269.144 13.0665C270.043 11.3736 271.319 10.0847 272.972 9.19925C274.639 8.31385 276.625 7.87105 278.93 7.87105C281.052 7.87105 282.94 8.31385 284.594 9.19925C286.247 10.0847 287.543 11.3736 288.48 13.0665C289.431 14.7592 289.906 16.8294 289.906 19.2773ZM275.57 19.2773C275.57 20.5403 275.681 21.608 275.902 22.4804C276.124 23.3398 276.475 23.9974 276.957 24.4531C277.452 24.8958 278.096 25.1172 278.89 25.1172C279.685 25.1172 280.316 24.8958 280.785 24.4531C281.254 23.9974 281.592 23.3398 281.801 22.4804C282.022 21.608 282.133 20.5403 282.133 19.2773C282.133 18.0143 282.022 16.9597 281.801 16.1133C281.592 15.267 281.247 14.629 280.765 14.1993C280.297 13.7696 279.659 13.5547 278.851 13.5547C277.693 13.5547 276.853 14.0364 276.332 15C275.824 15.9635 275.57 17.3893 275.57 19.2773Z" fill="#00539C"/>
</svg>
