<svg width="16" height="16" viewBox="0 0 16 16" fill="none" xmlns="http://www.w3.org/2000/svg">
<g clip-path="url(#clip0_24152_210)">
<path d="M7.99908 0.766602C11.9941 0.766602 15.2334 4.00501 15.2335 8C15.2335 11.1468 13.2236 13.8218 10.4171 14.8174C10.4179 14.6723 10.4203 14.4619 10.4219 14.2002C10.4243 13.8302 10.4268 13.3619 10.4268 12.8438C10.4268 12.4381 10.3567 12.0827 10.2393 11.7832C10.9019 11.6434 11.5747 11.3977 12.1339 10.9297C12.9414 10.2537 13.4327 9.19047 13.4327 7.5957C13.4327 6.73499 13.1593 6.00356 12.6973 5.41016C12.8077 4.98234 12.8951 4.22279 12.5255 3.29004L12.4385 3.07031L12.2139 2.99805L12.0928 3.37305C12.2015 3.03436 12.2123 3.00139 12.213 2.99805L12.212 2.99707H12.209C12.2078 2.99667 12.2065 2.99553 12.2051 2.99512C12.2023 2.99427 12.1995 2.99308 12.1964 2.99219C12.19 2.99037 12.1826 2.98924 12.1749 2.9873C12.1591 2.98336 12.1404 2.97845 12.1192 2.97461C12.0767 2.96691 12.0231 2.96096 11.959 2.95801C11.8307 2.95212 11.6614 2.96116 11.4493 3.00586C11.0607 3.08777 10.5324 3.28794 9.84772 3.72656C9.24978 3.58116 8.62314 3.50902 8.00299 3.50586H7.99811C7.37724 3.509 6.74927 3.58096 6.15143 3.72656C5.46667 3.28827 4.93859 3.08771 4.54987 3.00586C4.33734 2.96112 4.16755 2.95209 4.03912 2.95801C3.97535 2.96095 3.92231 2.96696 3.87994 2.97461C3.85873 2.97845 3.84002 2.98337 3.82428 2.9873C3.81652 2.98925 3.80922 2.99036 3.8028 2.99219C3.79955 2.99311 3.79593 2.99424 3.79303 2.99512C3.79171 2.99552 3.79037 2.99571 3.78912 2.99609L3.78717 2.99707H3.78619C3.78571 2.99722 3.78512 2.99787 3.93756 3.47363L3.78522 2.99805L3.55963 3.07031L3.47272 3.29004C3.10409 4.22222 3.19107 4.98179 3.30182 5.41016C2.84086 6.00277 2.56549 6.73433 2.56549 7.5957C2.56549 9.18685 3.0564 10.2491 3.86139 10.9268C4.41994 11.397 5.09187 11.6463 5.75397 11.7881C5.71842 11.8795 5.68899 11.9765 5.66315 12.0781C5.49963 12.1282 5.30557 12.1668 5.11041 12.1494C4.84627 12.1258 4.53958 12.004 4.27838 11.5566C4.27704 11.5543 4.27517 11.5517 4.2735 11.5488C4.26813 11.5396 4.26083 11.5279 4.25201 11.5137C4.23425 11.4851 4.20988 11.4462 4.1778 11.4014C4.11397 11.3121 4.01856 11.193 3.89264 11.0713C3.6442 10.8312 3.24344 10.5521 2.69733 10.5137L2.66803 10.5117H2.64948C2.64022 10.5118 2.6278 10.5122 2.61334 10.5127C2.58489 10.5137 2.54511 10.5165 2.50006 10.5215C2.4294 10.5293 2.26975 10.5504 2.12506 10.6328C2.04726 10.6771 1.92828 10.7651 1.85944 10.9229C1.78385 11.0961 1.80534 11.2681 1.86041 11.3994C1.94979 11.6123 2.14751 11.7718 2.32721 11.8945L2.36041 11.918L2.38678 11.9297C2.39083 11.932 2.3989 11.9379 2.41119 11.9463C2.4401 11.9661 2.49078 12.0033 2.5528 12.0654C2.67474 12.1877 2.8491 12.4111 2.99908 12.7891C2.99992 12.7915 3.00109 12.7942 3.00201 12.7969C3.00858 12.8154 3.01759 12.8397 3.02936 12.8682C3.05297 12.9253 3.08809 13.0017 3.13776 13.0889C3.23685 13.2628 3.39772 13.4863 3.64459 13.6914C4.0683 14.0433 4.69407 14.2956 5.57623 14.2275C5.57843 14.4761 5.58003 14.6767 5.58112 14.8174C2.77524 13.822 0.766663 11.1453 0.766663 8C0.766766 4.00501 4.00556 0.766708 7.99908 0.766602ZM2.39655 11.9346H2.39557L2.39459 11.9336L2.39264 11.9326C2.39163 11.9321 2.39054 11.932 2.38971 11.9316L2.38873 11.9307L2.39655 11.9346Z" fill="#09090B" stroke="#18181B"/>
</g>
<defs>
<clipPath id="clip0_24152_210">
<rect width="16" height="16" fill="white"/>
</clipPath>
</defs>
</svg>
